<svg width="41" height="41" viewBox="0 0 41 41" fill="none" xmlns="http://www.w3.org/2000/svg">
    <ellipse cx="20.491" cy="20.5" rx="20.3598" ry="20" fill="#DFDFDF"/>
    <path d="M23.4567 27.9442C23.4703 27.9402 23.4832 27.9349 23.4968 27.9302C31.7947 24.6954 29.4993 12.5 20.499 12.5C15.9822 12.5 12.3471 16.1128 12.3471 20.4987C12.3471 26.0492 18.0765 30.0099 23.4567 27.9442ZM15.9346 25.8705C16.5134 24.916 18.3863 22.2231 21.5832 21.2939C22.2516 22.9663 22.7204 24.9173 22.7665 27.1297C20.3441 27.9289 17.7892 27.391 15.9346 25.8705ZM23.7685 26.7124C23.6796 24.5867 23.2373 22.7017 22.6069 21.0686C24.0212 20.852 25.6584 20.9966 27.515 21.7265C27.1203 23.9002 25.7039 25.7272 23.7685 26.7124ZM27.6217 20.6927C25.5769 19.9388 23.7747 19.8448 22.2149 20.1368C21.9738 19.6035 21.7204 19.0909 21.4521 18.619C23.8453 17.6812 25.2597 16.538 25.8928 15.9328C27.0103 17.2019 27.674 18.845 27.6217 20.6927ZM25.1693 15.2209C24.5932 15.7588 23.2366 16.8453 20.9167 17.7338C19.7796 15.9688 18.5636 14.7236 17.7932 14.0264C20.2578 13.0306 23.1001 13.4558 25.1693 15.2209ZM16.8191 14.515C17.4006 15.0169 18.677 16.2221 19.9086 18.0858C18.2171 18.6204 16.0963 19.013 13.5169 19.0683C13.9272 17.1393 15.1527 15.5049 16.8191 14.515ZM13.3878 20.0721C16.2749 20.0261 18.6118 19.5789 20.4589 18.9736C20.7143 19.4129 20.9568 19.8915 21.1898 20.3887C17.9732 21.3939 15.9631 23.9888 15.1935 25.1606C13.9517 23.8009 13.2669 22.0265 13.3878 20.0721Z" fill="#211105"/>
</svg>
