<svg width="42" height="41" viewBox="0 0 42 41" fill="none" xmlns="http://www.w3.org/2000/svg">
    <ellipse cx="20.6602" cy="20.5" rx="20.3598" ry="20" fill="#DFDFDF"/>
    <path d="M28.5692 15.9206C28.0101 16.1615 27.4143 16.3212 26.7932 16.3988C27.4322 16.024 27.9199 15.4351 28.1492 14.7252C27.5534 15.0742 26.8956 15.3206 26.1946 15.4582C25.6289 14.8665 24.8227 14.5 23.9432 14.5C22.2367 14.5 20.8629 15.8606 20.8629 17.5286C20.8629 17.7686 20.8836 17.9994 20.9343 18.2191C18.3718 18.0963 16.1043 16.8898 14.5811 15.052C14.3152 15.5052 14.1592 16.024 14.1592 16.5825C14.1592 17.6311 14.7089 18.5606 15.5283 19.0988C15.0331 19.0895 14.5473 18.9483 14.1357 18.7258C14.1357 18.7351 14.1357 18.7471 14.1357 18.7591C14.1357 20.2305 15.2041 21.4526 16.6052 21.7342C16.3543 21.8015 16.0808 21.8338 15.7971 21.8338C15.5997 21.8338 15.4005 21.8228 15.2135 21.7822C15.6129 22.9812 16.7461 23.8628 18.0936 23.8914C17.045 24.6972 15.7134 25.1828 14.272 25.1828C14.0192 25.1828 13.7767 25.1717 13.5343 25.1412C14.8997 26.0062 16.5178 26.5 18.2628 26.5C23.9347 26.5 27.0357 21.8846 27.0357 17.884C27.0357 17.7502 27.031 17.6209 27.0244 17.4926C27.6361 17.0662 28.1501 16.5335 28.5692 15.9206Z" fill="#211105"/>
</svg>
